<svg id="visual" viewBox="0 0 900 600" width="900" height="600" xmlns="http://www.w3.org/2000/svg" xmlns:xlink="http://www.w3.org/1999/xlink" version="1.1"><rect x="0" y="0" width="900" height="600" fill="#100606"></rect><path d="M0 486L16.7 490.3C33.3 494.7 66.7 503.3 100 504.8C133.3 506.3 166.7 500.7 200 495.5C233.3 490.3 266.7 485.7 300 488.2C333.3 490.7 366.7 500.3 400 499.3C433.3 498.3 466.7 486.7 500 485C533.3 483.3 566.7 491.7 600 490C633.3 488.3 666.7 476.7 700 478.8C733.3 481 766.7 497 800 500.2C833.3 503.3 866.7 493.7 883.3 488.8L900 484L900 601L883.3 601C866.7 601 833.3 601 800 601C766.7 601 733.3 601 700 601C666.7 601 633.3 601 600 601C566.7 601 533.3 601 500 601C466.7 601 433.3 601 400 601C366.7 601 333.3 601 300 601C266.7 601 233.3 601 200 601C166.7 601 133.3 601 100 601C66.7 601 33.3 601 16.7 601L0 601Z" fill="#230d0e"></path><path d="M0 490L16.7 491.8C33.3 493.7 66.7 497.3 100 504.2C133.3 511 166.7 521 200 526C233.3 531 266.7 531 300 530.2C333.3 529.3 366.7 527.7 400 527.5C433.3 527.3 466.7 528.7 500 528.7C533.3 528.7 566.7 527.3 600 522.3C633.3 517.3 666.7 508.7 700 504.5C733.3 500.3 766.7 500.7 800 503.7C833.3 506.7 866.7 512.3 883.3 515.2L900 518L900 601L883.3 601C866.7 601 833.3 601 800 601C766.7 601 733.3 601 700 601C666.7 601 633.3 601 600 601C566.7 601 533.3 601 500 601C466.7 601 433.3 601 400 601C366.7 601 333.3 601 300 601C266.7 601 233.3 601 200 601C166.7 601 133.3 601 100 601C66.7 601 33.3 601 16.7 601L0 601Z" fill="#331716"></path><path d="M0 533L16.7 530.8C33.3 528.7 66.7 524.3 100 524.8C133.3 525.3 166.7 530.7 200 533.7C233.3 536.7 266.7 537.3 300 540.5C333.3 543.7 366.7 549.3 400 547.7C433.3 546 466.7 537 500 532.3C533.3 527.7 566.7 527.3 600 527.7C633.3 528 666.7 529 700 533.7C733.3 538.3 766.7 546.7 800 550.7C833.3 554.7 866.7 554.3 883.3 554.2L900 554L900 601L883.3 601C866.7 601 833.3 601 800 601C766.7 601 733.3 601 700 601C666.7 601 633.3 601 600 601C566.7 601 533.3 601 500 601C466.7 601 433.3 601 400 601C366.7 601 333.3 601 300 601C266.7 601 233.3 601 200 601C166.7 601 133.3 601 100 601C66.7 601 33.3 601 16.7 601L0 601Z" fill="#45211b"></path><path d="M0 551L16.7 554.7C33.3 558.3 66.7 565.7 100 568.7C133.3 571.7 166.7 570.3 200 569C233.3 567.7 266.7 566.3 300 565.8C333.3 565.3 366.7 565.7 400 565C433.3 564.3 466.7 562.7 500 562.3C533.3 562 566.7 563 600 565.2C633.3 567.3 666.7 570.7 700 570.3C733.3 570 766.7 566 800 565.2C833.3 564.3 866.7 566.7 883.3 567.8L900 569L900 601L883.3 601C866.7 601 833.3 601 800 601C766.7 601 733.3 601 700 601C666.7 601 633.3 601 600 601C566.7 601 533.3 601 500 601C466.7 601 433.3 601 400 601C366.7 601 333.3 601 300 601C266.7 601 233.3 601 200 601C166.7 601 133.3 601 100 601C66.7 601 33.3 601 16.7 601L0 601Z" fill="#562c1e"></path></svg>